<svg width="12" height="13" viewBox="0 0 12 13" fill="none" xmlns="http://www.w3.org/2000/svg">
<path d="M12 6.23239C12 7.88533 11.3679 9.47056 10.2426 10.6394C9.11742 11.8082 7.5913 12.4648 6 12.4648C4.4087 12.4648 2.88258 11.8082 1.75736 10.6394C0.632141 9.47056 0 7.88533 0 6.23239C0 4.57946 0.632141 2.99423 1.75736 1.82543C2.88258 0.656625 4.4087 0 6 0C7.5913 0 9.11742 0.656625 10.2426 1.82543C11.3679 2.99423 12 4.57946 12 6.23239ZM6 3.1162C5.90521 3.11625 5.81147 3.13693 5.72484 3.17691C5.63821 3.21688 5.5606 3.27526 5.49701 3.34828C5.43342 3.42131 5.38526 3.50736 5.35563 3.6009C5.32601 3.69443 5.31557 3.79337 5.325 3.89135L5.5875 6.62348C5.59632 6.73081 5.6436 6.83079 5.71998 6.90365C5.79637 6.97651 5.8963 7.01694 6 7.01694C6.1037 7.01694 6.20363 6.97651 6.28002 6.90365C6.3564 6.83079 6.40368 6.73081 6.4125 6.62348L6.675 3.89135C6.68443 3.79337 6.67399 3.69443 6.64437 3.6009C6.61474 3.50736 6.56658 3.42131 6.50299 3.34828C6.4394 3.27526 6.36179 3.21688 6.27516 3.17691C6.18853 3.13693 6.09479 3.11625 6 3.1162ZM6.0015 7.79049C5.80259 7.79049 5.61182 7.87257 5.47117 8.01867C5.33052 8.16477 5.2515 8.36293 5.2515 8.56954C5.2515 8.77616 5.33052 8.97431 5.47117 9.12041C5.61182 9.26651 5.80259 9.34859 6.0015 9.34859C6.20041 9.34859 6.39118 9.26651 6.53183 9.12041C6.67248 8.97431 6.7515 8.77616 6.7515 8.56954C6.7515 8.36293 6.67248 8.16477 6.53183 8.01867C6.39118 7.87257 6.20041 7.79049 6.0015 7.79049Z" fill="#E7364F"/>
</svg>
