<svg width="442" height="626" viewBox="0 0 442 626" fill="none" xmlns="http://www.w3.org/2000/svg">
<path d="M225.012 206.516V286.468L226.396 286.409C235.58 286.056 248.238 285.938 257.334 287.763C265.577 289.412 273.319 293.062 279.059 296.241C287.096 300.716 292.483 307.575 295.544 315.14L299.43 314.787C308.614 314.08 322.803 313.668 333.519 317.966C344.41 322.323 353.801 332.302 359.424 339.043C361.631 341.693 363.574 344.195 365.164 346.344H382.297C390.522 346.344 398.656 348.068 406.174 351.404C413.693 354.741 420.429 359.615 425.948 365.714C431.467 371.813 435.647 379.001 438.219 386.814C440.79 394.627 441.696 402.892 440.877 411.077L432.87 491C431.433 505.396 426.979 519.328 419.8 531.888L378.735 603.745C374.874 610.504 369.296 616.121 362.565 620.03C355.834 623.938 348.19 625.997 340.407 626H154.892C146.687 626 138.645 623.714 131.667 619.398C124.689 615.082 119.051 608.908 115.387 601.567L79.6202 530.034L6.29133 407.839C0.725307 398.495 -1.23952 387.441 0.765589 376.752C2.77069 366.062 8.60789 356.472 17.1817 349.78C25.7556 343.089 36.4767 339.756 47.3331 340.408C58.1895 341.06 68.4349 345.651 76.1465 353.32L121.981 399.125V206.516C121.981 192.853 127.408 179.75 137.069 170.089C146.73 160.428 159.834 155 173.496 155C187.159 155 200.262 160.428 209.923 170.089C219.584 179.75 225.012 192.853 225.012 206.516Z" fill="#EBE4B7"/>
<path d="M173.441 184.438C179.295 184.438 184.909 186.764 189.048 190.904C193.187 195.044 195.512 200.66 195.512 206.516V390.5C195.512 394.404 197.063 398.147 199.822 400.908C202.582 403.668 206.324 405.219 210.227 405.219C214.129 405.219 217.872 403.668 220.631 400.908C223.39 398.147 224.941 394.404 224.941 390.5V315.935L227.471 315.817C236.8 315.464 246.217 315.582 251.485 316.612C255.428 317.407 260.137 319.438 264.669 321.969C266.935 323.206 269.083 326.297 269.083 331.213V390.5C269.083 394.404 270.633 398.147 273.393 400.908C276.152 403.668 279.895 405.219 283.797 405.219C287.699 405.219 291.442 403.668 294.201 400.908C296.961 398.147 298.511 394.404 298.511 390.5V344.43L301.63 344.136C310.93 343.429 318.816 343.842 322.466 345.313C325.938 346.668 331.294 351.407 336.768 357.972C339.151 360.798 341.182 363.565 342.653 365.596V405.219C342.653 409.122 344.203 412.866 346.963 415.626C349.722 418.387 353.465 419.938 357.367 419.938C361.27 419.938 365.012 418.387 367.772 415.626C370.531 412.866 372.081 409.122 372.081 405.219V375.781H382.146C386.259 375.781 390.326 376.643 394.085 378.313C397.844 379.982 401.212 382.42 403.971 385.471C406.73 388.522 408.819 392.118 410.103 396.026C411.387 399.935 411.838 404.069 411.427 408.163L403.452 488.085C402.422 498.356 399.244 508.296 394.123 517.258L353.071 589.144C351.784 591.397 349.926 593.27 347.683 594.572C345.44 595.875 342.893 596.562 340.299 596.562H154.843C152.112 596.562 149.436 595.802 147.113 594.368C144.79 592.933 142.912 590.879 141.688 588.438L105.433 515.874L31.5093 392.678C29.61 389.493 28.9389 385.724 29.6219 382.078C30.305 378.433 32.2952 375.163 35.2188 372.882C38.1423 370.601 41.7978 369.466 45.4986 369.691C49.1994 369.916 52.6907 371.485 55.3167 374.103L126.239 445.048C128.295 447.11 130.916 448.515 133.771 449.086C136.626 449.657 139.586 449.368 142.277 448.256C144.968 447.143 147.268 445.257 148.887 442.836C150.505 440.415 151.37 437.569 151.37 434.656V206.516C151.37 200.66 153.696 195.044 157.835 190.904C161.974 186.764 167.588 184.438 173.441 184.438ZM224.941 286.468V206.516C224.941 192.853 219.515 179.75 209.857 170.089C200.199 160.428 187.1 155 173.441 155C159.783 155 146.684 160.428 137.026 170.089C127.368 179.75 121.942 192.853 121.942 206.516V399.125L76.1224 353.291C68.4132 345.622 58.171 341.031 47.3181 340.379C36.4651 339.727 25.7474 343.059 17.1763 349.751C8.60516 356.442 2.76982 366.033 0.765347 376.722C-1.23912 387.412 0.725078 398.466 6.28934 407.809L79.5949 530.063L115.35 601.596C119.018 608.932 124.655 615.1 131.631 619.41C138.606 623.721 146.644 626.002 154.843 626H340.299C348.08 625.997 355.722 623.938 362.45 620.03C369.179 616.121 374.755 610.504 378.615 603.745L419.667 531.888C426.844 519.328 431.296 505.396 432.733 491L440.708 411.077C441.526 402.892 440.621 394.627 438.05 386.814C435.48 379.001 431.301 371.813 425.784 365.714C420.266 359.615 413.532 354.741 406.016 351.404C398.5 348.068 390.369 346.344 382.146 346.344H365.048C363.211 343.852 361.297 341.417 359.31 339.043C353.689 332.302 344.301 322.323 333.413 317.966C322.701 313.668 308.517 314.08 299.335 314.787L295.451 315.14C292.317 307.117 286.491 300.436 278.971 296.241C272.2 292.335 264.878 289.477 257.253 287.763C248.13 285.938 235.505 286.056 226.353 286.409L224.941 286.468Z" fill="#082431"/>
<line x1="170" y1="22" x2="170" y2="94" stroke="#FDC835" stroke-width="44" stroke-linecap="round"/>
<line x1="291.053" y1="87.8231" x2="255.053" y2="150.177" stroke="#FDC835" stroke-width="44" stroke-linecap="round"/>
<line x1="46.0526" y1="82.0526" x2="82.0526" y2="144.406" stroke="#FDC835" stroke-width="44" stroke-linecap="round"/>
</svg>
